<svg width="320" height="59" viewBox="0 0 320 59" fill="none" xmlns="http://www.w3.org/2000/svg">
<path d="M258.793 6.96289C258.505 8.85279 256.851 14.1576 259.129 15.5899C261.421 17.0309 263.317 15.1816 263.597 12.9686C263.97 10.0181 259.398 7.71656 259.398 10.5464" stroke="#EC6666" stroke-width="8" stroke-linecap="round" stroke-linejoin="round"/>
<path d="M298.699 38.9654C298.699 42.9544 297.924 48.9211 303.839 48.4883C307.549 48.2168 312.001 45.0193 312.001 41.0889C312.001 36.3344 302.77 36.1785 300.513 38.9654" stroke="#789CE6" stroke-width="15" stroke-linecap="round" stroke-linejoin="round"/>
<path d="M288.532 9.86663C290.344 10.216 293.857 10.8044 293.973 7.94213C294.064 5.70354 293.715 4.46789 291.253 3.92723C288.359 3.29202 285.278 7.96064 287.927 9.26937" stroke="#FEE0C9" stroke-width="8" stroke-linecap="round" stroke-linejoin="round"/>
<path d="M207.075 3.16634C199.31 3.16634 191.41 2.8805 183.682 3.45098C179.588 3.75315 175.042 4.09056 172.713 6.63892C170.886 8.63874 188.696 8.80217 190.708 8.80217C192.968 8.80217 195.627 8.56193 197.864 8.8591C199.984 9.14085 202.742 10.3061 198.849 10.3392C193.672 10.3833 188.623 10.3129 183.553 11.1362C181.964 11.3944 174.576 12.2215 174.084 13.5272C172.798 16.9459 194.815 15.9421 197.992 15.9751C199.744 15.9932 211.447 17.5121 204.762 17.5121C204.058 17.5121 180.033 19.416 182.302 19.8271C187.576 20.7827 213.988 19.0491 219.415 19.0491C227.401 19.0491 220.165 19.0491 227.401 19.0491" stroke="#FEE0C9" stroke-width="14" stroke-linecap="round" stroke-linejoin="round"/>
<path d="M30.0527 0.677103C46.8173 0.677103 95.861 -1.48366 80.2954 1.91474C72.2219 3.67743 64.5557 4.09008 55.9498 4.78086C54.2563 4.9168 36.9061 5.36711 45.3284 5.36711C49.8371 5.36711 72.9646 8.61202 68.7193 8.88462C62.1341 9.30749 56.2906 10.0571 49.386 10.0571" stroke="#8795B1" stroke-width="7" stroke-linecap="round" stroke-linejoin="round"/>
<path d="M8.39117 13.9756C6.79801 18.0085 3.38448 24.1101 9.53106 24.1101C12.4538 24.1101 15.5352 24.86 17.5103 22.421C22.6321 16.0964 10.4185 12.2223 8.39117 16.2277" stroke="#FEE0C9" stroke-width="12" stroke-linecap="round" stroke-linejoin="round"/>
<path d="M47.061 30.721C46.5492 33.6102 45.2466 36.3513 48.7708 36.3513C50.5068 36.3513 50.4807 35.6332 50.4807 34.0992C50.4807 31.8343 48.7232 28.563 47.061 31.8471" stroke="#8A97B3" stroke-width="7" stroke-linecap="round" stroke-linejoin="round"/>
<path d="M82.278 37.2368C84.8039 37.2368 108.893 33.6163 107.527 41.0926C106.252 48.0679 92.5972 44.9485 88.737 44.9485C87.9329 44.9485 74.7212 45.2543 76.4061 42.9492C79.3338 38.9439 84.7496 39.8073 88.6196 39.8073" stroke="#FEE0C9" stroke-width="16" stroke-linecap="round" stroke-linejoin="round"/>
<path d="M157.502 41.7754C174.227 41.7754 190.857 41.8526 207.533 42.6263C207.772 42.6374 218.4 42.4509 215.421 43.9636C210.369 46.5284 193.929 45.5449 209.787 47.4889C217.801 48.4714 233.561 51.5584 214.294 51.6221C199.097 51.6724 154.995 52.7633 168.883 49.434C175.015 47.9638 195.313 47.2458 188.602 47.2458C184.228 47.2458 160.657 48.5529 159.643 46.638C158.516 44.51 166.076 43.9636 159.53 43.9636C152.647 43.9636 157.749 41.7754 161.558 41.7754" stroke="#8795B1" stroke-width="14" stroke-linecap="round" stroke-linejoin="round"/>
</svg>
